<?xml version="1.0" encoding="UTF-8"?><svg id="Layer_1" xmlns="http://www.w3.org/2000/svg" viewBox="0 0 200 200"><defs><style>.cls-1{fill:#fff;stroke:#1d1d1b;stroke-miterlimit:10;stroke-width:5px;}.cls-2{fill:#ff2f00;}</style></defs><circle class="cls-1" cx="101.24" cy="98.91" r="77.02"/><path class="cls-2" d="m78.04,58.67c5.97,4.4,11.34,9.39,16.6,14.51,10.37,10.37,20.64,20.84,30.7,31.51,5.04,5.32,10.02,10.71,14.91,16.19,10.45,12.47-5.87,28.71-18.28,18.28-10.95-9.78-21.55-19.91-32.06-30.15-10.42-10.36-21.31-20.22-30.15-32.06-8.65-12.31,6.13-26.87,18.28-18.28h0Z"/><path class="cls-2" d="m139.1,75.8c-8.28,9.66-20.72,23.26-29.32,32.89,0,0-29.49,32.72-29.49,32.72-5.97,6.62-16.17,7.15-22.79,1.19s-7.15-16.17-1.19-22.79c.37-.41.78-.82,1.19-1.19l32.72-29.49c9.68-8.63,23.18-20.99,32.89-29.32,10.88-8.77,24.73,5.19,15.99,15.99h0Z"/></svg>