<?xml version="1.0" encoding="UTF-8"?><svg id="Layer_1" xmlns="http://www.w3.org/2000/svg" viewBox="0 0 200 200"><defs><style>.cls-1{fill:#1d1d1b;stroke:#ff2100;stroke-linecap:round;stroke-width:36px;}.cls-1,.cls-2{stroke-miterlimit:10;}.cls-2{fill:#ff2100;stroke:#000;stroke-width:5px;}</style></defs><line class="cls-1" x1="39.84" y1="39.84" x2="160.16" y2="160.16"/><line class="cls-1" x1="160.16" y1="39.84" x2="39.84" y2="160.16"/><path class="cls-2" d="m125.46,100l47.44-47.44c7.03-7.03,7.03-18.43,0-25.46-7.03-7.03-18.43-7.03-25.46,0l-47.44,47.44L52.56,27.11c-7.03-7.03-18.43-7.03-25.46,0-7.03,7.03-7.03,18.43,0,25.46l47.44,47.44-47.44,47.44c-7.03,7.03-7.03,18.43,0,25.46,3.51,3.51,8.12,5.27,12.73,5.27s9.21-1.76,12.73-5.27l47.44-47.44,47.44,47.44c3.51,3.51,8.12,5.27,12.73,5.27s9.21-1.76,12.73-5.27c7.03-7.03,7.03-18.43,0-25.46l-47.44-47.44Z"/></svg>