<?xml version="1.0" encoding="UTF-8"?><svg id="Layer_1" xmlns="http://www.w3.org/2000/svg" viewBox="0 0 200 200"><defs><style>.cls-1{fill:#fff;}.cls-1,.cls-2,.cls-3{stroke:#1d1d1b;stroke-width:5px;}.cls-1,.cls-3{stroke-miterlimit:10;}.cls-4{fill:#b9b8b8;}.cls-2{fill:#f8ea40;stroke-linejoin:round;}.cls-5{fill:#1d1d1b;}.cls-3{fill:#4d84ff;}</style></defs><path class="cls-3" d="m23.89,30.6h106.91v63.83c0,12.92-10.49,23.42-23.42,23.42H23.89V30.6h0Z"/><rect class="cls-1" x="30.8" y="74.23" width="37.06" height="37.06" rx="10.2" ry="10.2"/><rect class="cls-1" x="87.1" y="37.17" width="37.06" height="37.06" rx="18.53" ry="18.53"/><polygon class="cls-2" points="34.31 9.5 40.5 28.52 60.5 28.52 44.31 40.28 50.5 59.3 34.31 47.54 18.13 59.3 24.31 40.28 8.13 28.52 28.13 28.52 34.31 9.5"/><path class="cls-5" d="m165.22,94.69l-7.8,29.11-24.92,6.68-18.25-18.25,6.68-24.93,29.11-7.8-3.88-14.49-33.29,8.92c-2.59.69-4.61,2.72-5.3,5.3l-8.92,33.29c-.69,2.59.05,5.35,1.94,7.24l6.76,6.76c-12.82,10.43-45.52,37.05-45.52,37.05-6.7,5.34-6.73,15.94,0,21.29,5.88,4.79,14.52,3.9,19.31-1.98l37.05-45.52,6.76,6.76c1.43,1.43,3.34,2.2,5.3,2.2.65,0,1.3-.08,1.94-.26l33.29-8.92c2.59-.69,4.61-2.72,5.3-5.3l8.92-33.29-14.49-3.88Z"/><path class="cls-4" d="m162.22,91.69l-7.8,29.11-24.92,6.68-18.25-18.25,6.68-24.93,29.11-7.8-3.88-14.49-33.29,8.92c-2.59.69-4.61,2.72-5.3,5.3l-8.92,33.29c-.69,2.59.05,5.35,1.94,7.24l6.76,6.76c-12.82,10.43-45.52,37.05-45.52,37.05-6.7,5.34-6.73,15.94,0,21.29,5.88,4.79,14.52,3.9,19.31-1.98l37.05-45.52,6.76,6.76c1.43,1.43,3.34,2.2,5.3,2.2.65,0,1.3-.08,1.94-.26l33.29-8.92c2.59-.69,4.61-2.72,5.3-5.3l8.92-33.29-14.49-3.88Z"/></svg>