<?xml version="1.0" encoding="UTF-8"?><svg id="Layer_2" xmlns="http://www.w3.org/2000/svg" viewBox="0 0 78.59 91.65"><defs><style>.cls-1{fill:#4d84ff;}</style></defs><g id="Layer_1-2"><g><path class="cls-1" d="m26.13,13.19c4.53-1.24,9.23-1.73,13.87-1.47,4.64.3,9.2,1.36,13.47,3.11,4.25,1.78,8.19,4.28,11.59,7.31,3.42,3.01,6.23,6.66,8.45,10.59,2.19,3.95,3.78,8.24,4.51,12.66.75,4.42.77,8.92.07,13.29-.7,4.37-2.09,8.63-4.22,12.48-2.11,3.86-4.84,7.34-8.02,10.29-6.4,5.88-14.76,9.47-23.26,10.09-8.49.57-17.1-1.64-24.01-6.38-.45-.27-.87-.58-1.27-.91l-1.23-.96c-.4-.33-.83-.63-1.21-.98l-1.13-1.08c-.74-.72-1.51-1.42-2.17-2.22l-1.02-1.17c-.32-.4-.63-.82-.94-1.23-2.48-3.3-4.42-7-5.63-10.91-1.22-3.9-1.83-7.98-1.71-12.02.12-4.04.9-8.04,2.29-11.8.54-1.46,2.16-2.2,3.61-1.66,1.39.51,2.13,2.01,1.73,3.41l-.02.06c-.94,3.24-1.35,6.62-1.21,9.95.13,3.34.88,6.61,2.07,9.67,2.38,6.15,6.99,11.24,12.5,14.48,5.53,3.25,12.11,4.38,18.28,3.53,6.19-.91,11.89-3.92,16.07-8.34,4.14-4.45,6.79-10.13,7.22-16.04.25-2.94.02-5.89-.67-8.71-.68-2.83-1.92-5.47-3.47-7.85-1.58-2.36-3.49-4.53-5.76-6.23-2.24-1.71-4.73-3.03-7.35-3.92-2.64-.85-5.39-1.27-8.13-1.25-2.74.06-5.44.56-7.97,1.45-4.7,1.66-9.86-.81-11.52-5.51s.81-9.86,5.51-11.52c.2-.07.4-.13.6-.19l.08-.02Z"/><polygon class="cls-1" points="40.83 40.01 0 30.72 28.46 0 40.83 40.01"/></g></g></svg>