<?xml version="1.0" encoding="UTF-8"?>
<svg xmlns="http://www.w3.org/2000/svg" version="1.1" viewBox="0 0 100 100">
  <defs>
    <style>
      .cls-1 {
        fill: #000d49;
      }
    </style>
  </defs>
  <!-- Generator: Adobe Illustrator 28.7.1, SVG Export Plug-In . SVG Version: 1.2.0 Build 142)  -->
  <g>
    <g id="Layer_1">
      <g>
        <path class="cls-1" d="M27.8,62.4c2.4,0,4-1.4,5.9-4l.5,1c-2.1,4.2-4.7,6.3-8.7,6.3s-9.7-4.6-9.7-12,4.7-12.4,10.4-12.4,5.6,1.7,8,5.7l-.5,1.1c-2.3-2.5-4-3.4-5.9-3.4-3.3,0-5.9,2.8-5.9,8.9s2.5,8.7,5.9,8.7ZM41,63.2v2l-8.3.5-.5-4.6v-15l.2-.6v-11.1l-3.8-.5v-1.9l8.7-2.2.7.4-.2,6.8v28l-2-3,5.2,1Z"/>
        <path class="cls-1" d="M61.1,51.1c0,1.1-.1,1.9-.3,2.6h-18.2v-2.3h10.2c2.3,0,2.9-1,2.9-2.7,0-2.9-1.9-5-4.3-5s-5.2,2.4-5.2,9.3,3,8.9,7.2,8.9,4.7-1.2,6.3-3l1.4,1.2c-1.8,3.6-5.1,5.6-9.6,5.6-6.7,0-11.3-4.5-11.3-12s5.6-12.3,11.6-12.3,9.4,3.8,9.4,9.6Z"/>
        <path class="cls-1" d="M64,45h-3.6v-2.5l5.6-.7-2,1c.5-5.5,1.7-8.3,3.7-10.4,2.3-2.3,4.9-3,7.3-3s4.6.8,5.1,3c0,1.5-1.2,2.6-3.2,2.6s-2.6-.7-3.9-2.4l-1.8-1.7,4.4-1,.8,1.4c-.5-.3-1.2-.6-1.8-.6-1.5,0-3,1.2-3.8,2.6-1.2,2.1-1.7,5.4-1.4,11v10.7c0,3.4,0,6.7.1,10.1h-6c0-3.4.1-6.7.1-10.1v-10ZM73.8,63.2v2h-13.2v-2l5.1-1h2.9l5.2,1ZM75.6,42.1v2.9h-8.7v-2.9h8.7Z"/>
      </g>
    </g>
  </g>
</svg>